:SAMPLES-PER-SECOND 30
:FULLY-SPECIFIED
:DEGREES
100
root  -39.9411 36.8391 -29.1708 47.3154 -85.1249 -5.75223
RightUpLeg  -81.963 -20.4896 27.7616
RightLeg  39.3454 3.79141 3.04415
RightFoot  0.514658 1.26978 -12.1371
RightToes  0.000482159 0.542163 -0.142577
Spine  72.6882 -5.78788 8.03186
Spine1  1.31982 1.61232 -8.64875
HEad  -46.6679 -5.88715 -0.0657546
LeftShoulder1  6.56467 -25.5585 -15.6526
LeftArm  -91.8798 -65.8332 24.7623
LeftForeArm  7.04073 -26.8128 -5.39429
LeftHand  -0.25398 0.0180481 5.50724
RightShoulder  3.38954 15.8019 10.2934
RightArm  -76.5166 41.7545 -18.5073
RightForeArm  -10.9319 23.0431 5.41911
RightHand  1.52061 6.54491 14.2328
LeftUpLeg  -82.2179 20.9545 -27.0958
LeftLeg  39.8625 0.787397 1.08917
LeftFoot  -1.16133 -0.813748 9.19007
LeftToes  1.06245e-005 4.65856e-005 -8.18503e-006
101
root  -39.7364 37.1147 -29.1027 45.4178 -84.4738 -5.19492
RightUpLeg  -79.9045 -21.6871 27.8472
RightLeg  37.0863 4.23471 3.15985
RightFoot  1.27403 1.32693 -11.8733
RightToes  0.000482159 0.542163 -0.142577
Spine  71.953 -5.75645 7.93644
Spine1  1.51638 1.52838 -8.5154
HEad  -45.6758 -5.56788 -1.21122
LeftShoulder1  6.66177 -25.401 -16.1512
LeftArm  -83.5251 -65.8217 16.775
LeftForeArm  6.45666 -28.9262 -5.92189
LeftHand  -0.25398 0.0180481 5.50724
RightShoulder  3.51742 16.0029 10.8086
RightArm  -70.0739 40.3233 -13.9039
RightForeArm  -14.0899 25.7136 6.21908
RightHand  1.38805 6.09742 13.5005
LeftUpLeg  -79.8603 21.0749 -26.5725
LeftLeg  37.6517 0.55262 0.8307
LeftFoot  -0.0204918 -0.989494 9.95511
LeftToes  1.06245e-005 4.65856e-005 -8.18503e-006
102
root  -39.4862 37.4427 -29.0401 43.1854 -83.6925 -4.86954
RightUpLeg  -77.2433 -23.238 27.7837
RightLeg  34.593 4.63034 3.17062
RightFoot  2.41591 1.40936 -11.4938
RightToes  0.000482159 0.542163 -0.142577
Spine  71.0944 -5.63434 7.83544
Spine1  2.02036 1.55549 -8.23269
HEad  -44.8766 -5.14043 -2.97005
LeftShoulder1  6.74202 -25.2623 -16.5791
LeftArm  -73.4068 -65.4169 7.39024
LeftForeArm  4.8977 -30.8703 -6.48504
LeftHand  -0.25398 0.0180481 5.50724
RightShoulder  3.82076 16.4318 12.0717
RightArm  -63.9198 38.6449 -10.3452
RightForeArm  -17.4483 27.6864 6.83882
RightHand  1.30887 5.22302 13.8348
LeftUpLeg  -76.6073 21.2103 -25.5111
LeftLeg  34.9776 0.44902 0.701313
LeftFoot  1.3083 -1.17858 10.5314
LeftToes  1.06245e-005 4.65856e-005 -8.18503e-006
103
root  -39.2136 37.7824 -28.9825 41.7411 -82.6999 -5.90343
RightUpLeg  -73.7973 -25.0077 27.5104
RightLeg  31.8622 4.88567 3.02232
RightFoot  3.52954 1.51449 -11.3691
RightToes  0.000482159 0.542163 -0.142577
Spine  69.7126 -5.45274 7.39485
Spine1  4.11654 1.29484 -7.30733
HEad  -45.0641 -3.64181 -5.83602
LeftShoulder1  6.47314 -23.7777 -16.9199
LeftArm  -64.6196 -64.8573 -0.0460164
LeftForeArm  2.66999 -32.1996 -6.95038
LeftHand  -0.25398 0.0180481 5.50724
RightShoulder  3.65683 16.3584 11.2359
RightArm  -59.5702 38.0244 -5.40719
RightForeArm  -19.7823 29.1278 7.30475
RightHand  1.15814 3.69582 14.3738
LeftUpLeg  -72.644 21.6042 -24.1327
LeftLeg  31.9959 0.205667 0.494853
LeftFoot  2.37735 -1.32792 10.8847
LeftToes  1.06245e-005 4.65856e-005 -8.18503e-006
104
root  -38.9267 38.084 -28.943 41.5781 -81.5595 -8.5636
RightUpLeg  -69.7472 -26.5519 26.8171
RightLeg  29.1547 4.96575 2.7571
RightFoot  4.44557 1.5826 -11.1505
RightToes  0.000482159 0.542163 -0.142577
Spine  68.3285 -5.68928 7.40004
Spine1  5.33971 1.16928 -7.79596
HEad  -44.5905 -1.84139 -8.67743
LeftShoulder1  6.40405 -22.9673 -17.4377
LeftArm  -53.4658 -62.9409 -8.36306
LeftForeArm  0.449473 -32.9559 -7.27525
LeftHand  -0.25398 0.0180481 5.50724
RightShoulder  3.90697 16.1622 12.8455
RightArm  -53.0688 37.2006 -1.37732
RightForeArm  -23.1068 31.027 7.94844
RightHand  0.904943 2.06899 13.802
LeftUpLeg  -68.5668 22.3446 -22.621
LeftLeg  29.1761 -0.365853 0.126177
LeftFoot  3.17014 -1.4621 11.2911
LeftToes  1.06245e-005 4.65856e-005 -8.18503e-006
105
root  -38.623 38.3236 -28.9396 41.5313 -80.4677 -11.3009
RightUpLeg  -65.548 -27.2814 25.2201
RightLeg  26.9593 4.44378 2.2249
RightFoot  5.2782 1.53928 -10.2578
RightToes  0.000482159 0.542163 -0.142577
Spine  66.3513 -5.65831 7.27106
Spine1  6.79778 1.00742 -7.89965
HEad  -44.4855 0.632665 -12.5311
LeftShoulder1  6.2549 -21.7352 -18.1117
LeftArm  -43.2964 -60.0307 -16.1014
LeftForeArm  -1.39126 -33.7583 -7.59618
LeftHand  -0.25398 0.0180481 5.50724
RightShoulder  3.94406 15.8729 13.3796
RightArm  -45.8675 35.5986 3.58896
RightForeArm  -26.304 33.9538 8.90274
RightHand  0.653336 0.768341 12.2322
LeftUpLeg  -64.9028 23.135 -21.0929
LeftLeg  26.8611 -1.04036 -0.233188
LeftFoot  4.06077 -1.64081 11.9024
LeftToes  1.06245e-005 4.65856e-005 -8.18503e-006
106
root  -38.3162 38.5184 -28.9854 40.4941 -79.4311 -13.0055
RightUpLeg  -60.999 -26.7425 22.0884
RightLeg  25.437 2.77437 1.21313
RightFoot  5.86528 1.33504 -8.53484
RightToes  0.000482159 0.542163 -0.142577
Spine  64.0706 -5.27493 7.20905
Spine1  7.76271 1.14034 -7.71398
HEad  -44.1254 3.37732 -17.1004
LeftShoulder1  6.70871 -21.2732 -20.4726
LeftArm  -34.2133 -55.4994 -21.8328
LeftForeArm  -2.71064 -35.4327 -8.14175
LeftHand  -0.25398 0.0180481 5.50724
RightShoulder  4.13196 15.4285 15.0255
RightArm  -38.7189 32.8069 7.22364
RightForeArm  -28.5346 37.982 10.2518
RightHand  0.456258 -0.402903 10.7558
LeftUpLeg  -61.4886 23.7596 -19.4832
LeftLeg  25.0123 -1.63654 -0.496995
LeftFoot  5.17424 -1.82023 12.2764
LeftToes  1.06245e-005 4.65856e-005 -8.18503e-006
